<svg width="39" height="39" viewBox="0 0 39 39" fill="none" xmlns="http://www.w3.org/2000/svg">
<g clip-path="url(#clip0_33_67)">
<path d="M1.81471 7.60502C0.812799 7.60502 0 8.41739 0 9.41973V30.2823C0 31.2845 0.812916 32.097 1.81471 32.097H37.1853C38.1872 32.097 39 31.2846 39 30.2823V9.41969C39 8.41751 38.1871 7.60498 37.1853 7.60498H1.81467L1.81471 7.60502ZM12.7883 10.5532C15.0145 10.5532 17.059 11.3277 18.6639 12.6214C17.3137 13.8296 16.3065 15.4169 15.8096 17.2161H16.5884C17.0471 15.7318 17.8802 14.4104 18.9784 13.3624C20.0765 14.4104 20.9097 15.7318 21.3683 17.2161H22.1593C21.6555 15.4264 20.647 13.8485 19.2977 12.6482C20.9057 11.3381 22.9582 10.5531 25.194 10.5531C30.3533 10.5531 34.5357 14.736 34.5357 19.8961C34.5357 25.0562 30.3533 29.2391 25.194 29.2391C22.9211 29.2391 20.8369 28.4278 19.2173 27.0782C20.6661 25.8177 21.7342 24.128 22.2227 22.2056H21.4609C21.0272 23.8191 20.1542 25.2541 18.9783 26.3762C17.8025 25.2541 16.9307 23.8191 16.497 22.2056H15.7718C16.2631 24.1001 17.3173 25.7662 18.7443 27.0149C17.1276 28.3477 15.0517 29.1489 12.7883 29.1489C7.62899 29.1489 3.44662 24.9862 3.44662 19.851C3.44662 14.7159 7.62899 10.5532 12.7883 10.5532ZM24.4932 17.121C23.3708 17.121 22.2788 18.1023 22.2788 19.9449C22.2788 21.1666 22.8686 21.9729 24.0289 21.9729C24.3569 21.973 24.8796 21.8388 24.8796 21.8388L25.0526 20.7712C25.0526 20.7712 24.5757 21.0125 24.2483 21.0125C23.5585 21.0125 23.2818 20.482 23.2818 19.912C23.2818 18.7555 23.8752 18.1191 24.5359 18.1191C25.0313 18.1191 25.4292 18.3995 25.4292 18.3995L25.5877 17.3611C25.5877 17.3611 24.9986 17.121 24.4932 17.121ZM33.93 17.2112L32.9538 17.2136L32.7442 18.4982C32.7442 18.4982 32.3772 17.9997 31.8033 17.9997C30.911 17.9997 30.1677 19.0597 30.1677 20.2788C30.1677 21.0657 30.5633 21.8376 31.3743 21.8376C31.9577 21.8376 32.281 21.4366 32.281 21.4366L32.2384 21.7791H33.1866L33.93 17.2112ZM5.96942 17.2246L5.19187 21.8034H6.12908L6.72142 18.3508L6.80917 21.8034H7.47946L8.72992 18.3508L8.17537 21.8034H9.17108L9.93892 17.2246H8.39842L7.43925 20.0338L7.38929 17.2246H5.96946L5.96942 17.2246ZM15.7609 17.522C15.7397 17.5432 15.1942 20.6891 15.1942 21.0722C15.1942 21.6395 15.5121 21.8929 15.9595 21.8888C16.2801 21.886 16.5284 21.8055 16.6432 21.7718C16.6553 21.7685 16.6786 21.762 16.6786 21.762L16.7992 20.943C16.7337 20.943 16.637 20.9711 16.5518 20.9711C16.2178 20.9711 16.1808 20.7933 16.202 20.6615L16.4714 18.9906H16.9796L17.1027 18.085H16.6238L16.7213 17.522H15.7609ZM27.0892 17.9827C26.435 17.9827 25.9338 18.1984 25.9338 18.1984L25.7948 19.0394C25.7948 19.0394 26.2088 18.8675 26.8345 18.8675C27.1897 18.8675 27.4499 18.9081 27.4499 19.2039C27.4499 19.3835 27.4182 19.4501 27.4182 19.4501C27.4182 19.4501 27.1373 19.4257 27.0075 19.4257C26.1826 19.4257 25.3159 19.7872 25.3159 20.8748C25.3159 21.7317 25.8848 21.9278 26.2373 21.9278C26.9103 21.9278 27.2006 21.4806 27.2159 21.4793L27.1842 21.8522H28.024L28.3993 19.1612C28.3994 18.0194 27.4269 17.9826 27.0892 17.9826V17.9827ZM11.3368 17.9876C10.6803 17.9876 10.1765 18.2033 10.1765 18.2033L10.0376 19.0442C10.0376 19.0442 10.453 18.8724 11.0809 18.8724C11.4374 18.8724 11.6988 18.9131 11.6988 19.2087C11.6988 19.3883 11.6671 19.4549 11.6671 19.4549C11.6671 19.4549 11.3854 19.4306 11.2552 19.4306C10.4271 19.4306 9.55746 19.7915 9.55746 20.8784C9.55746 21.7349 10.1276 21.9314 10.4812 21.9314C11.1568 21.9314 11.4481 21.4843 11.4636 21.4829L11.4319 21.8559H12.2753L12.6518 19.1661C12.6518 18.0249 11.6758 17.9875 11.3368 17.9875V17.9876ZM14.3154 17.9876C13.6104 17.9876 12.8944 18.2721 12.8944 19.2441C12.8944 20.3454 14.0875 20.2341 14.0875 20.698C14.0875 21.0077 13.7546 21.0332 13.4977 21.0332C13.0531 21.0332 12.6533 20.8796 12.6518 20.887L12.5239 21.7279C12.5469 21.735 12.7945 21.8461 13.594 21.8461C13.8086 21.8461 15.0357 21.9006 15.0357 20.6225C15.0357 19.4276 13.8998 19.6644 13.8998 19.1844C13.8998 18.9454 14.0843 18.8699 14.4227 18.8699C14.5571 18.8699 15.0747 18.9126 15.0747 18.9126L15.1942 18.0631C15.1942 18.0632 14.8601 17.9876 14.3154 17.9876ZM18.7224 17.9876C17.7427 17.9878 17.0174 19.0412 17.0174 20.2313C17.0174 21.6048 17.9262 21.9314 18.7005 21.9314C19.4152 21.9314 19.7303 21.7718 19.7303 21.7718L19.901 20.8346C19.901 20.8346 19.3573 21.0734 18.8663 21.0734C17.82 21.0734 18.0034 20.2946 18.0034 20.2946H19.9838C19.9838 20.2946 20.1118 19.6653 20.1118 19.4086C20.1118 18.7682 19.7922 17.9876 18.7224 17.9876ZM22.2702 18.0278C21.8289 18.0278 21.5012 18.6213 21.5012 18.6213L21.5889 18.0765H20.6724L20.057 21.8376H21.0697C21.3566 20.2315 21.409 18.9274 22.0935 19.1661C22.2133 18.5444 22.3296 18.3043 22.4603 18.0412C22.4603 18.0412 22.3989 18.0278 22.2702 18.0278ZM30.476 18.0278C30.0347 18.0278 29.707 18.6213 29.707 18.6213L29.7948 18.0765H28.8783L28.2628 21.8376H29.2744C29.5613 20.2315 29.615 18.9274 30.2993 19.1661C30.4194 18.5444 30.5355 18.3043 30.6662 18.0412C30.6662 18.0412 30.6047 18.0278 30.476 18.0278ZM18.7175 18.8358C19.274 18.8358 19.1722 19.4639 19.1722 19.5146H18.0765C18.0765 19.4498 18.1801 18.8358 18.7175 18.8358ZM31.9569 18.9089C32.311 18.9088 32.4931 19.148 32.4931 19.7109C32.4931 20.2215 32.2356 20.904 31.7021 20.904C31.3481 20.904 31.1817 20.6116 31.1817 20.1533C31.1817 19.4038 31.5246 18.9089 31.9569 18.9089ZM27.0904 20.1886C27.2348 20.1888 27.2647 20.2028 27.289 20.2094C27.2855 20.2088 27.2849 20.2094 27.2988 20.2118C27.3171 20.3793 27.1976 21.1649 26.6199 21.1649C26.3221 21.1649 26.2458 20.928 26.2458 20.7882C26.2458 20.5157 26.3877 20.1886 27.0904 20.1886ZM11.338 20.1923C11.5021 20.1925 11.52 20.2108 11.5477 20.2154C11.566 20.3829 11.446 21.1673 10.8664 21.1673C10.5674 21.1673 10.4898 20.9316 10.4898 20.7919C10.4898 20.5195 10.6325 20.1923 11.338 20.1923Z" fill="white"/>
</g>
<defs>
<clipPath id="clip0_33_67">
<rect width="39" height="39" fill="white"/>
</clipPath>
</defs>
</svg>
