<svg width="106" height="106" viewBox="0 0 106 106" fill="none" xmlns="http://www.w3.org/2000/svg">
<path d="M15.1911 62.0448H12.9138V70.2366H19.1479V68.2508H15.1911V62.0448ZM25.9228 61.8701C23.397 61.8701 21.4989 63.7831 21.4989 66.1333V66.1623C21.4989 68.5133 23.368 70.3965 25.8938 70.3965C28.4196 70.3965 30.3177 68.4835 30.3177 66.1333V66.1043C30.3177 63.7533 28.4486 61.8701 25.9228 61.8701ZM28.0105 66.1623C28.0105 67.3448 27.1782 68.3527 25.9228 68.3527C24.6814 68.3527 23.8351 67.3308 23.8351 66.1482V66.1192C23.8351 64.9366 24.6674 63.9288 25.9087 63.9288C27.1642 63.9288 28.0113 64.9507 28.0113 66.1333L28.0105 66.1623ZM38.4209 66.6591C38.4209 67.7978 37.8221 68.3386 36.917 68.3386C36.0118 68.3386 35.4131 67.7837 35.4131 66.6012V62.0457H33.106V66.6451C33.106 69.2147 34.5659 70.3832 36.8872 70.3832C39.2233 70.3832 40.7272 69.2296 40.7272 66.5871V62.0465H38.42L38.4209 66.6591ZM47.3572 62.0448H44.2037V70.2358H47.3133C50.263 70.2358 51.9855 68.4835 51.9855 66.1184V66.0894C51.9855 63.7243 50.2771 62.0448 47.3572 62.0448ZM49.6635 66.1482C49.6635 67.4765 48.7583 68.2218 47.4002 68.2218V68.2069H46.4802V64.0456H47.4002C48.7583 64.0456 49.6635 64.805 49.6635 66.1192V66.1482ZM55.2848 70.2366H57.5481V67.3158H61.432V65.4327H57.5481V64.0307H61.8411V62.0448H55.2848V70.2366ZM67.2578 62.0448H64.9946V70.2366H71.2295V68.2508H67.2578V62.0448ZM77.1572 61.9869L73.6824 70.2366H76.0624L76.6463 68.7767H79.7998L80.3985 70.2366H82.8365L79.3468 61.9869H77.1572ZM77.332 67.0094L78.252 64.6882L79.1572 67.0094H77.332ZM93.0282 64.8778V64.8489C93.0282 64.0315 92.7798 63.4038 92.2978 62.9359C91.743 62.3661 90.8817 62.0448 89.6255 62.0448H85.7565V70.2507H88.0338V67.7688H89.0267L90.6764 70.2507H93.3048L91.348 67.3887C92.3566 66.9656 93.0282 66.1333 93.0282 64.8778ZM90.736 65.0095C90.736 65.5933 90.2979 65.9735 89.5245 65.9735H88.0206V64.0166H89.5095C90.2689 64.0166 90.736 64.3379 90.736 64.9805V65.0095ZM98.5469 68.3088V67.0094H102.475V65.2132H98.5469V63.9727H102.884V62.0448H96.2985V70.2366H102.942V68.3088H98.5469ZM6.06601 63.9288C7.00014 63.9288 7.71564 64.4986 8.00796 65.2869H10.4029C10.0236 63.3301 8.30029 61.885 6.08092 61.885C3.55514 61.885 1.65707 63.798 1.65707 66.1482V66.1772C1.65707 68.5282 3.52615 70.4114 6.05193 70.4114C8.21251 70.4114 9.90685 69.0094 10.3449 67.1411L7.95082 67.1262C7.62951 67.8417 6.9579 68.3527 6.08175 68.3527C4.84039 68.3527 3.99404 67.3158 3.99404 66.1482V66.1192C3.99239 64.9358 4.82465 63.9288 6.06601 63.9288ZM88.794 56.9055C89.1004 55.8546 88.9837 54.8907 88.4727 54.1752C88.0057 53.5185 87.2173 53.1383 86.2683 53.0945L68.2946 52.8609C68.24 52.8614 68.186 52.8484 68.1376 52.8229C68.0892 52.7975 68.0478 52.7605 68.0172 52.7152C67.9887 52.6673 67.97 52.6142 67.9625 52.559C67.955 52.5038 67.9586 52.4476 67.9733 52.3939C68.0062 52.3057 68.0634 52.2288 68.1384 52.1719C68.2133 52.115 68.3028 52.0806 68.3965 52.0726L86.5308 51.839C88.6773 51.7372 91.0134 49.9989 91.8308 47.8673L92.8676 45.166C92.9133 45.055 92.9234 44.9326 92.8966 44.8157C92.3129 42.1963 90.8533 39.8543 88.7588 38.1766C86.6643 36.4988 84.0602 35.5857 81.3765 35.5879C76.1784 35.5879 71.7694 38.9459 70.1927 43.6041C69.1235 42.8081 67.7962 42.4385 66.4695 42.5673C65.2536 42.6923 64.1179 43.2324 63.2536 44.0967C62.3893 44.9609 61.8493 46.0966 61.7243 47.3125C61.6636 47.9336 61.7081 48.5604 61.856 49.1667C59.8918 49.2225 58.0269 50.0425 56.6581 51.4522C55.2892 52.8619 54.5244 54.7501 54.5262 56.715C54.5262 57.0802 54.5552 57.4454 54.5991 57.8098C54.6281 57.9854 54.7747 58.1162 54.9494 58.1162H88.1224C88.2179 58.1143 88.3103 58.0822 88.3863 58.0244C88.4623 57.9667 88.5181 57.8863 88.5456 57.7949L88.794 56.9055ZM94.5172 45.3565C94.3566 45.3565 94.181 45.3565 94.0212 45.3714C93.9044 45.3714 93.8025 45.4591 93.7587 45.5759L93.0581 48.0139C92.7517 49.0648 92.8684 50.0287 93.3794 50.7442C93.8464 51.4009 94.6348 51.7811 95.5838 51.8249L99.409 52.0585C99.5257 52.0585 99.6276 52.1173 99.6864 52.2042C99.7149 52.2521 99.7335 52.3052 99.7411 52.3604C99.7486 52.4156 99.7449 52.4718 99.7303 52.5255C99.6974 52.6137 99.6401 52.6906 99.5652 52.7475C99.4903 52.8044 99.4008 52.8388 99.3071 52.8468L95.3213 53.0804C93.1608 53.1822 90.8387 54.9205 90.0213 57.0521L89.729 57.7966C89.6702 57.9423 89.7729 58.0889 89.9335 58.0889H103.629C103.79 58.0889 103.935 57.987 103.979 57.8264C104.213 56.9792 104.345 56.089 104.345 55.1689C104.344 49.7662 99.934 45.3565 94.5172 45.3565Z" fill="white"/>
</svg>
