<svg width="31" height="28" viewBox="0 0 31 28" fill="none" xmlns="http://www.w3.org/2000/svg">
<path d="M25.3005 12.6492C25.3005 12.6492 25.7095 14.6836 25.801 15.1102H24.0035C24.1811 14.6234 24.8646 12.7312 24.8646 12.7312C24.8538 12.7477 25.0422 12.2336 25.1498 11.9164L25.3005 12.6492ZM31 4.375V23.625C31 25.0742 29.8429 26.25 28.4167 26.25H2.58333C1.15712 26.25 0 25.0742 0 23.625V4.375C0 2.92578 1.15712 1.75 2.58333 1.75H28.4167C29.8429 1.75 31 2.92578 31 4.375ZM8.20747 18.1125L11.6089 9.625H9.32153L7.20642 15.4219L6.975 14.2461L6.22153 10.3414C6.09774 9.8 5.71563 9.64687 5.24201 9.625H1.7599L1.72222 9.79453C2.57257 10.0133 3.33142 10.3305 3.9934 10.7297L5.92014 18.1125H8.20747ZM13.288 18.1234L14.6443 9.625H12.4807L11.1299 18.1234H13.288ZM20.8174 15.3453C20.8281 14.3773 20.2469 13.6391 19.0036 13.032C18.2448 12.6438 17.7819 12.3813 17.7819 11.982C17.7927 11.6211 18.1748 11.2492 19.0252 11.2492C19.7302 11.2328 20.2469 11.4023 20.6344 11.5719L20.8281 11.6648L21.1241 9.82734C20.699 9.65781 20.0208 9.46641 19.1866 9.46641C17.05 9.46641 15.5484 10.6258 15.5377 12.2773C15.5215 13.4969 16.6141 14.175 17.4321 14.5852C18.2663 15.0008 18.5516 15.2742 18.5516 15.6406C18.5408 16.2094 17.8734 16.4719 17.2545 16.4719C16.3934 16.4719 15.9306 16.3352 15.2255 16.018L14.9403 15.8812L14.6389 17.7898C15.1448 18.025 16.0812 18.2328 17.05 18.2437C19.3212 18.2492 20.8012 17.1063 20.8174 15.3453ZM28.4167 18.1234L26.6729 9.625H24.9991C24.4825 9.625 24.0896 9.77812 23.8689 10.3305L20.6559 18.1234H22.9271C22.9271 18.1234 23.2984 17.0734 23.3792 16.8492H26.1562C26.2208 17.15 26.4146 18.1234 26.4146 18.1234H28.4167Z" fill="white"/>
</svg>
