<svg width="50" height="50" viewBox="0 0 50 50" fill="none" xmlns="http://www.w3.org/2000/svg">
<path fill-rule="evenodd" clip-rule="evenodd" d="M32.7604 45.8334V29.698H38.1771L38.9875 23.4105H32.7583V19.3959C32.7583 17.5751 33.2646 16.3334 35.8771 16.3334H39.2063V10.7084C37.5941 10.5352 35.9735 10.4517 34.3521 10.4584C29.5521 10.4584 26.2667 13.3897 26.2667 18.7709V23.4105H20.8333V29.698H26.2646V45.8334H6.46667C5.19584 45.8334 4.16667 44.8043 4.16667 43.5334V6.46675C4.16667 5.19591 5.19584 4.16675 6.46667 4.16675H43.5333C44.8042 4.16675 45.8333 5.19591 45.8333 6.46675V43.5334C45.8333 44.8043 44.8042 45.8334 43.5333 45.8334H32.7604Z" fill="white"/>
</svg>
