<svg width="74" height="74" viewBox="0 0 74 74" fill="none" xmlns="http://www.w3.org/2000/svg">
<path fill-rule="evenodd" clip-rule="evenodd" d="M17.982 29.0141H14.2203C9.94683 29.0141 6.39483 32.1036 6.17592 36.6207C6.16975 36.7687 6.16667 36.9177 6.16667 37.0677C6.16667 37.2034 6.16975 37.3391 6.17592 37.4747C6.39483 41.6434 9.94683 45.0042 14.2234 44.9857H17.9851C22.348 45.0042 26.3378 41.4245 26.3378 37.0677C26.3378 32.304 22.348 29.0141 17.982 29.0141ZM14.245 44.2951C12.3309 44.2558 10.5084 43.4678 9.16864 42.1002C7.82884 40.7326 7.07844 38.8944 7.07844 36.9799C7.07844 35.0653 7.82884 33.2271 9.16864 31.8595C10.5084 30.4919 12.3309 29.704 14.245 29.6647C15.2059 29.6642 16.1575 29.8534 17.0453 30.2212C17.933 30.589 18.7395 31.1283 19.4185 31.8082C20.0976 32.4881 20.6359 33.2953 21.0026 34.1835C21.3693 35.0717 21.5572 36.0236 21.5556 36.9845C21.556 37.9444 21.3673 38.8949 21.0002 39.7819C20.6332 40.6688 20.095 41.4748 19.4164 42.1537C18.7378 42.8326 17.932 43.3711 17.0453 43.7385C16.1585 44.106 15.2049 44.2951 14.245 44.2951Z" fill="white"/>
<path d="M41.1286 35.0575C41.1071 35.2191 41.1071 35.383 41.1286 35.5446C41.1779 36.3401 41.6959 36.9969 42.3619 36.9969C42.8306 36.9969 43.1883 36.7502 43.4966 36.4295L43.6168 36.5529C43.2283 37.0678 42.7504 37.4964 42.0628 37.4964C40.7308 37.4964 40.4595 36.2014 40.4595 35.6649C40.4595 34.0122 41.5757 33.525 42.1646 33.525C42.8398 33.525 43.5768 33.9567 43.5829 34.8509V34.9989L43.5058 35.0482H41.1502L41.1286 35.0575ZM42.6209 34.7892C42.8306 34.7892 42.8583 34.6813 42.8583 34.5795C42.8583 34.154 42.5993 33.8056 42.1245 33.8056C41.6158 33.8056 41.2581 34.1818 41.1594 34.7923L42.6209 34.7892ZM43.993 37.1572C44.2335 37.1572 44.3938 37.1572 44.3938 36.8797V34.524C44.3938 34.265 44.0855 34.2157 43.9529 34.1448V34.0153C44.5696 33.7563 44.9088 33.5374 44.9797 33.5374C45.0269 33.5333 45.0496 33.5703 45.0475 33.6484V34.4038H45.0691C45.2757 34.0739 45.6364 33.5405 46.1421 33.5405C46.3518 33.5405 46.62 33.6761 46.62 33.9845C46.62 34.2157 46.4597 34.4161 46.2223 34.4161C45.9633 34.4161 45.9633 34.2157 45.6673 34.2157C45.5254 34.2157 45.0506 34.4007 45.0506 34.9095V36.8828C45.0506 37.1603 45.2171 37.1603 45.4576 37.1603H45.9232V37.3761C45.4668 37.3761 45.1092 37.3576 44.7515 37.3576C44.3897 37.3556 44.0547 37.3617 43.7463 37.3761V37.1603L43.993 37.1572ZM46.9962 36.2137C47.1041 36.7687 47.4433 37.2374 48.0507 37.2374C48.544 37.2374 48.7259 36.9383 48.7259 36.6423C48.7259 35.6464 46.8944 35.964 46.8944 34.6135C46.8944 34.1448 47.2737 33.5374 48.1987 33.5374C48.4669 33.5374 48.8246 33.6175 49.1545 33.784L49.2131 34.6412H49.025C48.9448 34.117 48.6458 33.8087 48.1093 33.8087C47.7701 33.8087 47.4525 33.9937 47.4525 34.3637C47.4525 35.3504 49.4012 35.042 49.4012 36.3617C49.4012 36.9198 48.9541 37.5056 47.9613 37.5056C47.6004 37.4974 47.2474 37.3988 46.9345 37.2189L46.8451 36.2538L46.9962 36.2137ZM57.3007 37.1572H57.461C57.6984 37.1572 57.868 37.1572 57.868 36.8797V32.2054C57.868 31.6565 57.7385 31.6381 57.4209 31.5486V31.4099C57.7173 31.3127 58.0059 31.1931 58.2843 31.0522C58.3768 31.0029 58.4446 30.9597 58.4754 30.9597C58.5248 30.9597 58.5433 31.0121 58.5433 31.0831V36.8797C58.5433 37.1572 58.7344 37.1572 58.9626 37.1572H59.1013V37.3761C58.8146 37.3761 58.5248 37.3576 58.2164 37.3576C57.9122 37.3535 57.6069 37.3597 57.3007 37.3761V37.1572ZM62.6934 36.9198C62.6934 37.0678 62.7828 37.077 62.9308 37.077H63.27V37.2559C62.9123 37.2867 62.2155 37.4655 62.0552 37.5149L62.0151 37.484V36.8088C61.5094 37.2158 61.1209 37.5149 60.5258 37.5149C60.0664 37.5149 59.6008 37.2158 59.6008 36.519V34.373C59.6008 34.154 59.57 33.9413 59.0921 33.9043V33.744C59.3912 33.744 60.0664 33.6854 60.1774 33.6854C60.2668 33.6854 60.2668 33.747 60.2668 33.9228V36.0935C60.2668 36.3401 60.2668 37.0678 60.9914 37.0678C61.2813 37.0678 61.6574 36.8489 62.0089 36.5591V34.302C62.0089 34.1325 61.5988 34.043 61.2998 33.9536V33.8056C62.0552 33.7563 62.5238 33.6854 62.6133 33.6854C62.6842 33.6854 62.6842 33.747 62.6842 33.8334V36.9383L62.6934 36.9198ZM64.3646 34.1448C64.7038 33.855 65.1508 33.5374 65.6164 33.5374C66.5908 33.5374 67.1797 34.3822 67.1797 35.298C67.1797 36.4018 66.3718 37.4964 65.1693 37.4964C64.5527 37.4964 64.2258 37.299 64.0069 37.1973L63.7572 37.3885L63.5783 37.296C63.6462 36.8026 63.6955 36.3124 63.6955 35.8067V32.2054C63.6955 31.6565 63.5691 31.6381 63.2484 31.5486V31.4099C63.5459 31.3128 63.8355 31.1932 64.1148 31.0522C64.2043 31.0029 64.2752 30.9597 64.3029 30.9597C64.3523 30.9597 64.3738 31.0121 64.3738 31.0831V34.1448H64.3646ZM64.3646 36.4326C64.3646 36.7502 64.6606 37.2867 65.2279 37.2867C66.1221 37.2867 66.5013 36.4018 66.5013 35.6556C66.5013 34.7522 65.8168 33.9968 65.1601 33.9968C64.8518 33.9968 64.5928 34.1941 64.3646 34.3945V36.4326ZM52.5863 39.0658V39.0874L52.5246 39.4574C52.5164 39.5807 52.5133 39.7061 52.5153 39.8335L52.3581 39.8952V39.8736C52.3458 39.6948 52.3273 39.4451 52.0374 39.4451H51.3036V41.8624C51.3128 42.2108 51.4516 42.2324 51.6612 42.2416H51.7692V42.4081H51.7507C51.5718 42.4081 51.2543 42.3989 51.0045 42.3989C50.7363 42.3989 50.4187 42.4081 50.2398 42.4081H50.2183V42.2416H50.32C50.5759 42.2293 50.6777 42.2293 50.6777 41.8716V39.4451H49.95C49.6108 39.4543 49.6232 39.516 49.543 39.852L49.3642 39.8644V39.8428C49.3827 39.7133 49.4135 39.5838 49.4258 39.4543C49.4431 39.3265 49.4524 39.1978 49.4536 39.0689V39.0473H49.5923V39.0689C49.6324 39.1768 49.7126 39.1768 49.8298 39.1768H49.8513L52.2193 39.186C52.3365 39.1768 52.4352 39.1768 52.4352 39.0565V39.0381H52.466L52.5955 39.0565L52.5863 39.0658ZM55.9471 39.1275C55.7221 39.1237 55.4987 39.1652 55.29 39.2493C55.0813 39.3334 54.8916 39.4584 54.732 39.6171C54.5725 39.7758 54.4464 39.9648 54.3612 40.173C54.276 40.3813 54.2333 40.6045 54.2358 40.8295C54.2358 41.7853 54.9912 42.4883 55.9656 42.4883C56.9399 42.4883 57.7169 41.7822 57.7169 40.7185C57.7169 39.7318 56.9307 39.1275 55.9471 39.1275ZM56.0149 42.2509C55.2903 42.2509 54.9203 41.4831 54.9203 40.6691C54.9203 40.0617 55.1516 39.3649 55.9378 39.3649C56.721 39.3649 57.0417 40.1604 57.0417 40.8171C57.0293 41.4831 56.8813 42.2509 56.0149 42.2509ZM67.3554 39.0874C67.6329 39.0874 67.8333 39.297 67.8333 39.5745C67.8333 39.852 67.6237 40.0525 67.3554 40.0525C67.2924 40.0533 67.2299 40.0415 67.1716 40.0178C67.1132 39.9941 67.0602 39.9589 67.0156 39.9143C66.9711 39.8698 66.9359 39.8168 66.9122 39.7584C66.8885 39.7001 66.8767 39.6375 66.8775 39.5745C66.8775 39.3063 67.0872 39.0874 67.3554 39.0874ZM67.3554 39.9631C67.4059 39.9627 67.4558 39.9523 67.5022 39.9325C67.5487 39.9127 67.5907 39.8839 67.626 39.8478C67.6612 39.8117 67.689 39.7689 67.7076 39.722C67.7263 39.6751 67.7355 39.625 67.7347 39.5745C67.7347 39.368 67.5743 39.1768 67.3554 39.1768C67.1396 39.1768 66.9793 39.368 66.9793 39.5776C66.9793 39.7842 67.1458 39.9631 67.3554 39.9631ZM67.118 39.8243V39.8027C67.1797 39.8027 67.1858 39.8027 67.1858 39.7657V39.405C67.1858 39.3556 67.1858 39.3371 67.118 39.3371V39.3186H67.3647C67.4572 39.3186 67.525 39.3556 67.525 39.4451C67.5259 39.4785 67.5158 39.5114 67.4963 39.5387C67.4769 39.5659 67.449 39.5861 67.4171 39.5961L67.4942 39.704C67.521 39.75 67.5592 39.7882 67.6052 39.8151V39.8335H67.5127L67.3462 39.6177H67.2968V39.7719C67.2968 39.7719 67.3061 39.8027 67.3647 39.8151V39.8335H67.1365L67.118 39.8243ZM67.2753 39.5653H67.3369C67.3986 39.5653 67.4263 39.516 67.4263 39.4451C67.4263 39.3772 67.377 39.3464 67.3338 39.3464H67.2876V39.5745L67.2753 39.5653ZM40.4903 37.1572V37.3761L39.5962 37.3669C39.294 37.3669 38.9918 37.37 38.6897 37.3761V37.1603H38.8408C39.0782 37.1603 39.2478 37.1603 39.2478 36.8828V34.7121C39.2478 34.225 38.9487 33.9968 38.4708 33.9968C38.2025 33.9968 37.777 34.2126 37.4964 34.3945V36.8797C37.4964 37.1572 37.6753 37.1572 37.9158 37.1572H38.0638V37.3761L37.1788 37.3669C36.8767 37.3669 36.5755 37.37 36.2754 37.3761V37.1603H36.4234C36.6516 37.1603 36.8212 37.1603 36.8212 36.8828V34.6628C36.8212 34.3421 36.7287 34.262 36.334 34.1078V33.9444C36.704 33.8272 37.0401 33.7162 37.4471 33.5374C37.4687 33.5374 37.4964 33.559 37.4964 33.6299V34.1756C37.9743 33.8272 38.3813 33.5374 38.9487 33.5374C39.664 33.5374 39.9138 34.0646 39.9138 34.709V36.8797C39.9138 37.1572 40.1049 37.1572 40.3331 37.1572H40.4903ZM30.5743 31.5178C29.9453 31.5178 29.4705 31.5271 29.1098 31.5271C28.7829 31.5271 28.4551 31.524 28.1262 31.5178V31.7336C28.5054 31.7336 28.8908 31.6874 28.8908 32.4428V36.519C28.8723 37.0986 28.6226 37.1048 28.1262 37.1572V37.3761L29.2516 37.3669C29.6493 37.3669 30.0348 37.3761 30.4633 37.3761C33.448 37.3761 33.9352 35.2856 33.9352 34.4531C33.9352 32.97 32.7419 31.5178 30.5743 31.5178ZM30.5928 37.1079C30.1858 37.1079 29.7172 37.037 29.7172 36.3926V31.8169C29.8775 31.8045 30.0255 31.786 30.3739 31.786C31.9958 31.786 33.0102 32.9207 33.0102 34.4932C33.0102 35.745 32.412 37.1079 30.5928 37.1079ZM35.8777 37.1572H36.0257V37.3761L35.1408 37.3669L34.225 37.3761V37.1603H34.3853C34.6258 37.1603 34.7923 37.1603 34.7923 36.889V34.6135C34.7923 34.2342 34.6628 34.1818 34.3545 34.0153V33.8858C34.743 33.7655 35.2209 33.6083 35.2487 33.5867C35.2947 33.5568 35.348 33.5398 35.4028 33.5374C35.4491 33.5374 35.4583 33.5867 35.4583 33.6576V36.889C35.4583 37.1572 35.6495 37.1572 35.8777 37.1572ZM34.7122 31.8261C34.7181 31.7201 34.7628 31.62 34.8379 31.5449C34.913 31.4698 35.0131 31.425 35.1192 31.4191C35.3288 31.4191 35.5385 31.598 35.5385 31.8261C35.5385 31.9373 35.4943 32.044 35.4157 32.1226C35.337 32.2013 35.2304 32.2455 35.1192 32.2455C35.0101 32.2423 34.9066 32.1967 34.8306 32.1184C34.7546 32.0401 34.7121 31.9352 34.7122 31.8261Z" fill="white"/>
<path d="M41.1286 35.0575C41.1071 35.2191 41.1071 35.383 41.1286 35.5446C41.1779 36.3401 41.6959 36.9969 42.3619 36.9969C42.8306 36.9969 43.1882 36.7502 43.4966 36.4295L43.6168 36.5529C43.2283 37.0678 42.7504 37.4964 42.0628 37.4964C40.7308 37.4964 40.4595 36.2014 40.4595 35.6649C40.4595 34.0122 41.5757 33.525 42.1646 33.525C42.8398 33.525 43.5767 33.9567 43.5829 34.8509V34.9989L43.5058 35.0482H41.1502L41.1286 35.0575ZM42.6209 34.7892C42.8306 34.7892 42.8583 34.6813 42.8583 34.5795C42.8583 34.154 42.5993 33.8056 42.1245 33.8056C41.6157 33.8056 41.2581 34.1818 41.1594 34.7923L42.6209 34.7892ZM43.993 37.1572C44.2335 37.1572 44.3938 37.1572 44.3938 36.8797V34.524C44.3938 34.265 44.0855 34.2157 43.9529 34.1448V34.0153C44.5696 33.7563 44.9087 33.5374 44.9797 33.5374C45.0269 33.5333 45.0496 33.5703 45.0475 33.6484V34.4038H45.0691C45.2757 34.0739 45.6364 33.5405 46.1421 33.5405C46.3517 33.5405 46.62 33.6761 46.62 33.9845C46.62 34.2157 46.4597 34.4161 46.2222 34.4161C45.9632 34.4161 45.9632 34.2157 45.6672 34.2157C45.5254 34.2157 45.0506 34.4007 45.0506 34.9095V36.8828C45.0506 37.1603 45.2171 37.1603 45.4576 37.1603H45.9232V37.3761C45.4668 37.3761 45.1092 37.3576 44.7515 37.3576C44.3897 37.3556 44.0547 37.3617 43.7463 37.3761V37.1603L43.993 37.1572ZM46.9962 36.2137C47.1041 36.7687 47.4432 37.2374 48.0507 37.2374C48.544 37.2374 48.7259 36.9383 48.7259 36.6423C48.7259 35.6464 46.8944 35.964 46.8944 34.6135C46.8944 34.1448 47.2737 33.5374 48.1987 33.5374C48.4669 33.5374 48.8246 33.6175 49.1545 33.784L49.2131 34.6412H49.025C48.9448 34.117 48.6457 33.8087 48.1092 33.8087C47.7701 33.8087 47.4525 33.9937 47.4525 34.3637C47.4525 35.3504 49.4012 35.042 49.4012 36.3617C49.4012 36.9198 48.9541 37.5056 47.9612 37.5056C47.6004 37.4974 47.2474 37.3988 46.9345 37.2189L46.8451 36.2538L46.9962 36.2137ZM57.0016 35.8345L56.8166 37.0585C56.4558 37.2775 55.5123 37.5056 54.9542 37.5056C52.984 37.5056 51.7414 36.2322 51.7414 34.3421C51.7414 32.6216 53.2831 31.3883 54.9357 31.3883C55.611 31.3883 56.2677 31.6072 56.9122 31.8385L56.9923 33.0317H56.7827C56.6254 32.0574 55.9286 31.6596 54.9851 31.6596C54.0385 31.6596 52.6171 32.3071 52.6171 34.3236C52.6171 36.0133 53.8288 37.2374 55.1238 37.2374C55.5319 37.2364 55.9261 37.09 56.2359 36.8243C56.5456 36.5587 56.7504 36.1913 56.8135 35.7882L57.0016 35.8345ZM57.3007 37.1572H57.461C57.6984 37.1572 57.868 37.1572 57.868 36.8797V32.2054C57.868 31.6565 57.7385 31.6381 57.4209 31.5486V31.4099C57.7173 31.3127 58.0059 31.1931 58.2842 31.0522C58.3767 31.0029 58.4446 30.9597 58.4754 30.9597C58.5247 30.9597 58.5432 31.0121 58.5432 31.0831V36.8797C58.5432 37.1572 58.7344 37.1572 58.9626 37.1572H59.1013V37.3761C58.8146 37.3761 58.5247 37.3576 58.2164 37.3576C57.9122 37.3535 57.6069 37.3597 57.3007 37.3761V37.1572ZM62.6934 36.9198C62.6934 37.0678 62.7828 37.077 62.9308 37.077H63.27V37.2559C62.9123 37.2867 62.2155 37.4655 62.0552 37.5149L62.0151 37.484V36.8088C61.5094 37.2158 61.1209 37.5149 60.5258 37.5149C60.0664 37.5149 59.6008 37.2158 59.6008 36.519V34.373C59.6008 34.154 59.57 33.9413 59.0921 33.9043V33.744C59.3912 33.744 60.0664 33.6854 60.1774 33.6854C60.2668 33.6854 60.2668 33.747 60.2668 33.9228V36.0935C60.2668 36.3401 60.2668 37.0678 60.9914 37.0678C61.2812 37.0678 61.6574 36.8489 62.0089 36.5591V34.302C62.0089 34.1325 61.5988 34.043 61.2997 33.9536V33.8056C62.0552 33.7563 62.5238 33.6854 62.6132 33.6854C62.6842 33.6854 62.6842 33.747 62.6842 33.8334V36.9383L62.6934 36.9198ZM64.3646 34.1448C64.7037 33.855 65.1508 33.5374 65.6164 33.5374C66.5907 33.5374 67.1797 34.3822 67.1797 35.298C67.1797 36.4018 66.3718 37.4964 65.1693 37.4964C64.5527 37.4964 64.2258 37.299 64.0069 37.1973L63.7572 37.3885L63.5783 37.296C63.6462 36.8026 63.6955 36.3124 63.6955 35.8067V32.2054C63.6955 31.6565 63.5691 31.6381 63.2484 31.5486V31.4099C63.5459 31.3128 63.8355 31.1932 64.1148 31.0522C64.2043 31.0029 64.2752 30.9597 64.3029 30.9597C64.3522 30.9597 64.3738 31.0121 64.3738 31.0831V34.1448H64.3646ZM64.3646 36.4326C64.3646 36.7502 64.6606 37.2867 65.2279 37.2867C66.1221 37.2867 66.5013 36.4018 66.5013 35.6556C66.5013 34.7522 65.8168 33.9968 65.1601 33.9968C64.8517 33.9968 64.5927 34.1941 64.3646 34.3945V36.4326ZM36.5622 39.0473L36.6917 39.0689V39.0874C36.6691 39.2148 36.6526 39.3382 36.6423 39.4574C36.6321 39.5807 36.6279 39.7061 36.63 39.8335H36.6207L36.4512 39.8952V39.8736C36.4419 39.6948 36.4203 39.4451 36.1336 39.4451H35.409V41.8624C35.409 42.2108 35.5477 42.2324 35.7667 42.2416H35.8653V42.4081H35.8561L35.1099 42.3989C34.8324 42.3989 34.5117 42.4081 34.3329 42.4081H34.3144V42.2416H34.4223C34.6721 42.2293 34.7707 42.2293 34.7831 41.8716V39.4451H34.0431C33.707 39.4543 33.7162 39.516 33.6484 39.852H33.6361L33.4696 39.8644V39.8428C33.4901 39.7133 33.5066 39.5838 33.5189 39.4543C33.5372 39.3266 33.5475 39.1979 33.5497 39.0689V39.0473H33.6977V39.0689C33.7286 39.1768 33.818 39.1768 33.9259 39.1768H36.3124C36.4419 39.1768 36.5313 39.1768 36.5437 39.0565V39.0381H36.5622V39.0473ZM29.5106 39.1984H29.5322V39.3649H29.4397C29.3441 39.3772 29.2423 39.3772 29.1837 39.4358C29.1437 39.4759 29.1221 39.5252 29.1221 39.6146V42.0011C29.1221 42.2293 29.2824 42.2416 29.4427 42.2478H29.5322V42.4205H29.5075L28.7829 42.4112C28.5547 42.4112 28.2957 42.4205 28.1169 42.4205H28.0953V42.2509H28.1755C28.3451 42.2416 28.4931 42.2293 28.4931 42.0042V39.6146C28.4931 39.5252 28.4746 39.4759 28.4314 39.4358C28.3759 39.3741 28.2865 39.3741 28.1755 39.3649H28.0953V39.1984H28.1169C28.2957 39.1984 28.564 39.2076 28.7952 39.2076L29.5106 39.1984ZM39.4451 41.665V41.6835C39.3781 41.9227 39.3255 42.1657 39.2878 42.4112H39.2755V42.4205C38.9795 42.4205 38.4522 42.3989 38.0422 42.3989C37.6352 42.3989 37.0863 42.4205 36.8304 42.4205H36.8088V42.2509H36.889C37.0586 42.2416 37.2066 42.2293 37.2066 42.0042V39.6146C37.2066 39.5252 37.1881 39.4759 37.148 39.4358C37.0863 39.3741 37 39.3741 36.889 39.3649H36.8088V39.1984H36.8304C37.1079 39.1984 37.5858 39.2076 37.9651 39.2076L39.1367 39.1984H39.1583V39.4451C39.1583 39.6054 39.1583 39.7842 39.1768 39.9137L39.1583 39.9322L38.998 39.9723V39.9538C38.9672 39.6547 38.9302 39.4358 38.4615 39.4358H37.8448V40.589H38.369C38.6311 40.589 38.6773 40.4502 38.7082 40.2128V40.1912H38.8901V40.2128C38.8777 40.3914 38.8705 40.5703 38.8685 40.7493C38.8685 40.9179 38.8757 41.0905 38.8901 41.2673V41.2858H38.8685L38.7112 41.3166V41.295C38.6804 41.0175 38.6804 40.8572 38.3721 40.8572H37.8448V41.9025C37.8448 42.18 38.0822 42.18 38.3813 42.18C38.9302 42.18 39.1583 42.1491 39.2878 41.6435V41.625H39.3187L39.4667 41.662L39.4451 41.665ZM33.3709 39.1984H33.3894V39.3649H33.3C33.115 39.3772 32.9146 39.3865 32.9146 39.9322V42.0104C32.9105 42.1748 32.9166 42.328 32.9331 42.4698V42.4883H32.7357L30.4078 39.9045V41.7329C30.4171 42.1337 30.4757 42.2416 30.8241 42.2509H30.9166V42.4205H30.895L30.3092 42.4112L29.6925 42.4205H29.6617V42.2509H29.7511C30.0502 42.2416 30.1396 42.0505 30.1396 41.6835V39.7626C30.1408 39.7108 30.1317 39.6593 30.1127 39.6111C30.0937 39.5629 30.0653 39.519 30.0291 39.4819C29.9929 39.4449 29.9497 39.4154 29.9019 39.3953C29.8542 39.3752 29.8029 39.3649 29.7511 39.3649H29.6586V39.1984H29.6894L30.2074 39.2076C30.3462 39.2076 30.4757 39.1984 30.636 39.1984L32.6463 41.4646V39.7842C32.6463 39.4142 32.3966 39.3772 32.2671 39.3649H32.1468V39.1984H32.1684L32.8036 39.2076L33.3709 39.1984ZM42.7504 42.2509C42.5346 42.22 42.4513 42.1707 42.3218 41.9826L41.5572 40.8295C41.9056 40.6876 42.1831 40.4286 42.1831 40.0124C42.1831 39.5961 41.9734 39.3865 41.6774 39.2878H41.6651C41.4747 39.2181 41.2725 39.1867 41.07 39.1953C40.8295 39.1953 40.6106 39.2076 40.3331 39.2076C40.0556 39.2076 39.7781 39.1984 39.627 39.1984H39.6085V39.3649H39.7072C39.8552 39.3772 40.0155 39.3772 40.0155 39.6948V42.0227C40.0155 42.1707 39.8767 42.2509 39.7072 42.2509H39.6085V42.4205H39.627L40.293 42.4112L41.0792 42.4205H41.1008V42.2509H40.9991C40.7832 42.2416 40.6414 42.2416 40.6414 41.9025V40.9466H40.9097C41.2087 41.4646 41.5078 41.9518 41.8562 42.4205L42.3033 42.4112L42.7504 42.4205H42.7689V42.2509H42.7504ZM40.8387 40.7401H40.6414V39.4142C40.7031 39.4142 40.7617 39.3957 40.8819 39.3957C41.2797 39.3957 41.5294 39.6424 41.5294 40.0432C41.5294 40.5797 41.2982 40.7401 40.8418 40.7401M46.5892 39.1984V39.3649H46.4967C46.3086 39.3772 46.1205 39.3957 46.1082 39.9322V42.0104C46.1082 42.1748 46.1184 42.328 46.139 42.4698V42.4883H45.9293L43.6137 39.9045V41.7329C43.6137 42.1337 43.6754 42.2416 44.0207 42.2509H44.1194V42.4205H44.1009L43.5027 42.4112L42.8861 42.4205H42.8676V42.2509H42.9477C43.2561 42.2509 43.3362 42.0505 43.3455 41.6835V39.7626C43.3463 39.7099 43.3365 39.6575 43.3166 39.6087C43.2968 39.5599 43.2672 39.5155 43.2298 39.4784C43.1924 39.4413 43.1478 39.4121 43.0988 39.3925C43.0498 39.373 42.9974 39.3636 42.9447 39.3649H42.8676V39.1984H42.8861L43.4133 39.2076L43.8327 39.1984L45.8399 41.4646V39.7842C45.8399 39.4142 45.5932 39.3772 45.4637 39.3649H45.3435V39.1984H45.3651L46.0002 39.2076L46.5676 39.1984H46.5892ZM49.7095 42.2509C49.5615 42.2509 49.4813 42.1985 49.4227 42.069C49.3642 41.9395 49.3117 41.773 49.2624 41.6126L48.4176 39.2169L48.3775 39.1059C48.359 39.075 48.3374 39.0751 48.3282 39.0751L48.2788 39.0874C48.1465 39.168 48.006 39.2342 47.8595 39.2847C47.8287 39.4635 47.7392 39.6948 47.6807 39.8613L46.9561 41.9611C46.8852 42.1491 46.7464 42.2509 46.5768 42.2509H46.5275V42.4297H46.546C46.7104 42.4174 46.8728 42.4102 47.0332 42.4081L47.5912 42.4174H47.6097V42.2509H47.5419C47.3908 42.2509 47.2243 42.22 47.212 42.109C47.212 42.032 47.2737 41.9117 47.323 41.7514L47.4617 41.295H48.4669L48.6458 41.813C48.6868 41.9154 48.7168 42.0219 48.7352 42.1306C48.7352 42.22 48.5748 42.2509 48.4669 42.2509H48.396V42.4297H48.4176C48.656 42.4174 48.8842 42.4102 49.1021 42.4081L49.7403 42.4174H49.7588V42.2509H49.7095ZM47.5604 40.996L47.9612 39.7719L48.359 40.996H47.5604ZM53.7394 39.6146V42.0011C53.7394 42.2293 53.8874 42.2416 54.057 42.2478H54.1372V42.4205H54.1279C53.8997 42.4205 53.6284 42.3989 53.4002 42.3989C53.1721 42.3989 52.9038 42.4205 52.7219 42.4205H52.7034V42.2509H52.7959C52.9532 42.2416 53.1135 42.2293 53.1135 42.0042V39.6146C53.1135 39.5252 53.0919 39.4759 53.0518 39.4358C52.9932 39.3741 52.8946 39.3741 52.7928 39.3649H52.7034V39.1984H52.725L53.4033 39.2076L54.1279 39.1984H54.1372V39.3649H54.057C53.9491 39.3772 53.8597 39.3772 53.798 39.4358C53.7579 39.4759 53.7394 39.5252 53.7394 39.6146ZM61.5187 39.1984V39.3649H61.4262C61.2412 39.3772 61.0407 39.3957 61.0407 39.9322V42.0104C61.0366 42.1748 61.0428 42.328 61.0592 42.4698V42.4883H60.8619L58.534 39.9045V41.7329C58.534 42.1337 58.6049 42.2416 58.9533 42.2509H59.0427V42.4205H59.0212L58.4353 42.4112L57.8187 42.4205H57.8002V42.2509H57.8772C58.1763 42.2416 58.2657 42.0505 58.2657 41.6835V39.7626C58.267 39.7108 58.2578 39.6593 58.2389 39.6111C58.2199 39.5629 58.1915 39.519 58.1553 39.4819C58.1191 39.4449 58.0758 39.4154 58.0281 39.3953C57.9803 39.3752 57.9291 39.3649 57.8772 39.3649H57.7971V39.1984H57.8187L58.3367 39.2076C58.4754 39.2076 58.6049 39.1984 58.7622 39.1984L60.7725 41.4646V39.7842C60.7725 39.4142 60.5258 39.3772 60.3932 39.3649H60.2761V39.1984H60.2946L60.9328 39.2076L61.4971 39.1984H61.5187ZM64.6421 42.2509C64.491 42.2386 64.4108 42.1985 64.3522 42.069C64.2937 41.9395 64.2443 41.773 64.1827 41.6126L63.3502 39.2169C63.3502 39.2169 63.3193 39.1367 63.2977 39.1059C63.2885 39.075 63.2669 39.0751 63.2484 39.0751L63.2083 39.0874C63.077 39.1678 62.9375 39.234 62.7921 39.2847C62.7419 39.4797 62.6822 39.6721 62.6132 39.8613L61.8732 41.9611C61.8514 42.0442 61.8027 42.1177 61.7346 42.1701C61.6665 42.2226 61.583 42.251 61.4971 42.2509H61.4601V42.4174H61.4786L61.9657 42.4081L62.5207 42.4174H62.5423V42.2509H62.4745C62.3142 42.2509 62.1446 42.2201 62.1446 42.0998C62.1446 42.032 62.2062 41.9117 62.2432 41.7514L62.3851 41.295H63.3964L63.566 41.813C63.6277 41.9518 63.6677 42.0813 63.6677 42.1306C63.6677 42.22 63.5074 42.2509 63.3964 42.2509H63.3286V42.4174H63.3471L64.0347 42.4081L64.6606 42.4174H64.6822V42.2509H64.6421ZM62.493 40.996L62.8907 39.7719L63.2885 40.996H62.493ZM67.4263 41.6034V41.6342C67.3746 41.8942 67.318 42.1533 67.2567 42.4112L67.2382 42.4205L66.0357 42.4112L64.8209 42.4205H64.7993V42.2509H64.8918C65.046 42.2416 65.2063 42.2293 65.2063 41.9611V39.6054C65.2063 39.3865 65.0491 39.3772 64.8887 39.3649H64.7993V39.1984H64.8209L65.5455 39.2076C65.786 39.2076 66.0049 39.1984 66.2423 39.1984H66.2608V39.3649H66.1221C65.9432 39.3772 65.8353 39.3649 65.8353 39.5961V41.9518C65.8353 42.1214 65.9432 42.1707 66.0943 42.1923C66.1704 42.2005 66.2526 42.2036 66.341 42.2016C66.452 42.2016 66.5681 42.1944 66.6894 42.18C66.7733 42.1718 66.8546 42.1465 66.9283 42.1056C67.002 42.0648 67.0666 42.0093 67.118 41.9425C67.179 41.8437 67.2257 41.7368 67.2567 41.625V41.6034H67.4263ZM67.3554 39.0874C67.6329 39.0874 67.8333 39.297 67.8333 39.5745C67.8333 39.852 67.6237 40.0525 67.3554 40.0525C67.2924 40.0533 67.2299 40.0415 67.1715 40.0178C67.1132 39.9941 67.0602 39.9589 67.0156 39.9143C66.9711 39.8698 66.9359 39.8168 66.9122 39.7584C66.8885 39.7001 66.8767 39.6375 66.8775 39.5745C66.8775 39.3063 67.0872 39.0874 67.3554 39.0874ZM67.3554 39.9631C67.4059 39.9627 67.4558 39.9523 67.5022 39.9325C67.5486 39.9127 67.5907 39.8839 67.626 39.8478C67.6612 39.8117 67.689 39.7689 67.7076 39.722C67.7263 39.6751 67.7355 39.625 67.7347 39.5745C67.7347 39.368 67.5743 39.1768 67.3554 39.1768C67.1396 39.1768 66.9792 39.368 66.9792 39.5776C66.9792 39.7842 67.1457 39.9631 67.3554 39.9631ZM67.118 39.8243V39.8027C67.1797 39.8027 67.1858 39.8027 67.1858 39.7657V39.405C67.1858 39.3556 67.1858 39.3371 67.118 39.3371V39.3186H67.3647C67.4572 39.3186 67.525 39.3556 67.525 39.4451C67.5259 39.4785 67.5158 39.5114 67.4963 39.5387C67.4769 39.5659 67.449 39.5861 67.4171 39.5961L67.4942 39.704C67.521 39.75 67.5592 39.7882 67.6052 39.8151V39.8335H67.5127L67.3462 39.6177H67.2968V39.7719C67.2968 39.7719 67.3061 39.8027 67.3647 39.8151V39.8335H67.1365L67.118 39.8243ZM67.2752 39.5653H67.3369C67.3986 39.5653 67.4263 39.516 67.4263 39.4451C67.4263 39.3772 67.377 39.3464 67.3338 39.3464H67.2876V39.5745L67.2752 39.5653Z" fill="white"/>
<path fill-rule="evenodd" clip-rule="evenodd" d="M18.8762 36.9878C18.8762 38.958 17.6428 40.6384 15.9038 41.3137V32.6619C16.7793 32.9968 17.5323 33.5898 18.0631 34.3624C18.5939 35.1349 18.8774 36.0505 18.8762 36.9878Z" fill="white"/>
<path fill-rule="evenodd" clip-rule="evenodd" d="M17.9851 29.0141H14.2234C9.94683 29.0141 6.39792 32.1036 6.17592 36.6207V37.4747C6.39792 41.6434 9.94683 45.0042 14.2234 44.9857H17.9851C22.3511 45.0042 26.3409 41.4245 26.3409 37.0677C26.3409 32.304 22.3511 29.0141 17.9851 29.0141ZM14.245 44.2951C12.3309 44.2558 10.5084 43.4678 9.16864 42.1002C7.82884 40.7326 7.07844 38.8944 7.07844 36.9799C7.07844 35.0653 7.82884 33.2271 9.16864 31.8595C10.5084 30.4919 12.3309 29.704 14.245 29.6647C15.2057 29.6647 16.1569 29.8541 17.0443 30.2221C17.9317 30.5901 18.7378 31.1295 19.4165 31.8093C20.0953 32.4892 20.6333 33.2962 20.9998 34.1842C21.3663 35.0722 21.5541 36.0238 21.5525 36.9845C21.5529 37.9444 21.3642 38.8949 20.9971 39.7819C20.6301 40.6688 20.0919 41.4748 19.4133 42.1537C18.7347 42.8326 17.929 43.3711 17.0422 43.7385C16.1554 44.106 15.2049 44.2951 14.245 44.2951Z" fill="white"/>
<path fill-rule="evenodd" clip-rule="evenodd" d="M12.5831 32.6619V41.3044C11.7076 40.9705 10.9542 40.3785 10.4226 39.6068C9.89106 38.8351 9.60643 37.9202 9.60643 36.9832C9.60643 36.0461 9.89106 35.1312 10.4226 34.3595C10.9542 33.5878 11.7076 32.9958 12.5831 32.6619Z" fill="white"/>
</svg>
