<svg width="64" height="25" viewBox="0 0 64 25" fill="none" xmlns="http://www.w3.org/2000/svg">
<g clip-path="url(#clip0_33_72)">
<path d="M9.97712 5.50051C10.7148 5.25095 11.4874 5.12436 12.265 5.12564C15.7547 5.12564 18.6684 7.64214 19.3357 10.9871L24.2827 9.96257C23.1474 4.27805 18.1992 4.42884e-06 12.265 4.42884e-06C10.9434 -0.00112786 9.63036 0.214862 8.37675 0.639598L9.97712 5.50051Z" fill="white"/>
<path d="M4.13888 21.7772L7.48425 17.9374C5.991 16.5942 5.04875 14.6341 5.04875 12.4502C5.04875 10.2679 5.98962 8.30868 7.482 6.96718L4.13637 3.12695C1.60025 5.40792 0 8.73977 0 12.4502C0 16.1629 1.60087 19.4957 4.13888 21.7772Z" fill="white"/>
<path d="M19.3345 13.9202C18.6643 17.2634 15.7538 19.7751 12.265 19.7751C11.4644 19.7751 10.6935 19.644 9.975 19.3988L8.37238 24.2618C9.59475 24.676 10.9036 24.9004 12.265 24.9004C18.1935 24.9004 23.1411 20.6294 24.2808 14.9501L19.3345 13.9202Z" fill="white"/>
<path d="M28.6087 18.0993C28.4466 17.8328 28.2262 17.4064 28.0937 17.0927C27.3104 15.2463 27.2729 13.3355 27.9345 11.5012C28.6619 9.48955 30.0514 7.94945 31.8467 7.16531C34.1039 6.17914 36.6002 6.37356 38.7635 7.67673C40.1377 8.47711 41.112 9.7129 41.8517 11.4601L41.9204 11.63L42.0484 11.9676C42.069 12.0222 42.0893 12.0749 42.1095 12.1257L28.6087 18.0993ZM33.1169 10.1294C31.514 10.8288 30.6877 12.3553 30.8575 14.1451L37.6475 11.1784C36.4799 9.78511 34.9601 9.32343 33.1169 10.1294ZM41.1186 18.3659L38.4941 16.5845L38.4904 16.5884L38.3497 16.4922C37.9447 17.1597 37.3124 17.7003 36.5147 18.0515C34.997 18.7215 33.5905 18.5493 32.5805 17.65L32.4876 17.7934C32.4866 17.7917 32.4864 17.7904 32.4846 17.7904L30.7621 20.4068C31.1906 20.7091 31.6495 20.9643 32.1311 21.1682C34.034 21.9706 35.9809 21.9335 37.8989 21.0866C39.2862 20.4762 40.3747 19.5455 41.1186 18.3658M46.8284 3.31201V17.8577L49.0559 18.7742L47.7901 21.7725L45.3314 20.7331C44.7794 20.4906 44.4039 20.1191 44.1194 19.7001C43.8475 19.2729 43.6441 18.6866 43.6441 17.8973V3.31214L46.8284 3.31201ZM52.599 14.1521C52.6002 12.9135 53.139 11.8027 53.9915 11.0478L51.7061 8.46074C50.1561 9.85161 49.1799 11.8841 49.1781 14.1486C49.1756 16.4138 50.1504 18.4483 51.6987 19.8428L53.9815 17.2533C53.1331 16.4954 52.598 15.3879 52.599 14.1521ZM56.6595 18.2807C56.2095 18.2794 55.7761 18.2039 55.372 18.0673L54.2806 21.3618C55.0463 21.6223 55.8484 21.7554 56.6559 21.7559C60.2745 21.7595 63.296 19.1529 63.9961 15.6878L60.6415 14.9923C60.26 16.8705 58.6219 18.2819 56.6595 18.2807ZM56.6695 6.55617C55.863 6.55463 55.0616 6.6856 54.2964 6.94399L55.3782 10.2415C55.7937 10.1018 56.2286 10.0306 56.6662 10.0305C58.6332 10.0324 60.2725 11.4522 60.645 13.3357L64 12.645C63.3095 9.17483 60.2909 6.55858 56.6694 6.5563" fill="#FFFCFC"/>
</g>
<defs>
<clipPath id="clip0_33_72">
<rect width="64" height="25" fill="white"/>
</clipPath>
</defs>
</svg>
