<svg width="512" height="223" viewBox="0 0 512 223" fill="none" xmlns="http://www.w3.org/2000/svg">
<g clip-path="url(#clip0_81_19)">
<path d="M140.555 0H87.49C64.044 1.109 44.878 10.552 39.344 30.026C36.459 40.183 34.871 51.336 32.614 61.865C21.144 115.398 10.972 170.404 0 222.867H413.12C445.059 222.867 466.987 216.118 472.914 190.771C475.667 178.995 478.304 165.657 480.938 152.72C491.206 102.278 501.483 51.838 512 0H140.555Z" fill="#FFFCFC"/>
<path d="M353.7 133.153C347.97 138.762 331.887 140.355 333.533 126.948C334.899 115.812 347.023 113.446 360.163 115.054C359.186 121.145 358.066 128.879 353.7 133.154M335.6 89.717C335.054 92.789 334.214 95.569 333.533 98.507C340.093 96.863 360.523 91.82 362.491 100.576C363.145 103.486 362.017 106.576 361.198 108.85C342.724 107.1 327.667 110.17 323.708 123.329C321.055 132.143 324.005 140.817 329.655 143.239C340.536 147.899 353.772 142.559 358.354 135.223C357.878 137.763 357.427 140.328 357.578 143.497H367.144C367.246 134.335 368.579 126.919 369.988 118.675C371.19 111.655 373.45 104.704 373.09 98.508C372.27 84.318 348.76 89.336 335.6 89.717ZM431.524 137.55C424.039 137.71 420.318 133.079 420.147 125.399C419.849 111.949 425.749 97.005 437.729 95.665C443.307 95.041 447.345 96.338 451.432 97.734C447.681 112.842 449.035 137.174 431.524 137.55ZM456.344 66.449C455.392 74.803 454.118 82.838 452.467 90.493C425.196 81.862 408.471 101.926 408.771 126.691C408.83 131.481 409.654 136.231 412.65 139.618C417.812 145.458 432.594 146.854 440.056 141.946C441.502 140.996 442.977 139.268 443.936 138.068C444.654 137.165 445.796 134.802 446.002 135.481C445.611 138.106 445.024 140.537 444.969 143.498H455.053C456.995 115.621 463.005 91.81 467.463 66.448L456.344 66.449ZM171.68 133.412C165.731 139.712 151.108 139.615 149.962 129.016C149.462 124.404 151.181 119.568 152.03 114.796C152.89 109.966 153.508 105.332 154.356 101.092C160.215 93.938 177.431 93.075 179.178 104.971C180.694 115.299 176.606 128.195 171.68 133.412ZM180.471 89.716C171.061 86.182 159.592 90.401 154.621 94.415C154.638 94.591 154.503 94.615 154.356 94.629C154.441 94.557 154.533 94.486 154.621 94.415C154.621 94.4002 154.619 94.3854 154.615 94.371C154.699 92.644 155.307 91.442 155.391 89.716H145.825C141.838 116.239 137.111 142.02 132.121 167.54H143.239C144.848 157.6 145.911 147.116 148.152 137.807C150.691 147.597 167.269 145.727 174.265 141.944C188.7 134.139 199.834 96.99 180.471 89.716ZM233.215 108.332H207.102C207.928 102.329 213.329 95.73 221.839 95.405C229.848 95.098 235.582 98.345 233.215 108.332ZM222.615 88.682C214.581 89.301 207.791 91.612 202.965 96.697C197.045 102.933 192.252 116.72 193.656 129.275C195.66 147.187 217.962 146.545 235.801 142.202C236.104 139.059 236.865 136.372 237.352 133.412C230.003 136.162 217.245 140 209.687 135.222C203.981 131.614 203.947 122.477 205.809 114.537C217.798 114.156 230.259 114.229 242.264 114.537C243.026 108.909 245.206 102.773 243.298 97.215C240.783 89.876 231.778 87.977 222.615 88.682ZM124.882 89.716C124.581 89.76 124.601 90.126 124.622 90.491C122.173 108.812 118.858 126.268 115.315 143.496H126.433C129.104 125.051 132.164 106.997 135.999 89.716H124.882ZM414.978 89.974C405.152 85.062 396.972 93.305 393.778 98.248C394.687 95.712 394.738 92.317 395.586 89.716H385.761C383.113 108.183 379.918 126.104 376.195 143.496H387.571C387.643 136.368 389.043 131.096 390.156 124.104C392.534 109.178 396.024 92.81 413.426 97.732C414.004 95.207 414.244 92.344 414.978 89.974ZM290.096 130.826C289.072 128.179 288.806 123.806 289.062 120.484C289.637 113.012 292.359 103.917 296.56 99.8C302.358 94.117 313.804 95.057 322.932 98.248C323.216 95.171 323.834 92.427 324.226 89.458C309.253 87.013 295.045 88.534 287.511 96.438C280.137 104.177 275.302 121.962 278.72 133.153C282.72 146.248 300.654 146.96 315.177 141.944C315.819 139.312 316.159 136.378 316.728 133.67C308.793 137.793 293.623 139.936 290.096 130.826ZM283.892 89.716C274.033 85.735 266.284 92.463 262.692 98.766C263.505 95.962 263.842 92.678 264.5 89.716H254.675C252.273 108.344 248.733 125.833 245.367 143.496H256.486C258.044 133.011 258.716 118.878 262.173 108.849C264.936 100.835 272.166 94.007 282.599 97.732C282.745 94.775 283.592 92.518 283.892 89.716ZM104.714 67.998C103.126 78.303 101.337 88.408 99.543 98.507C88.025 98.628 76.265 99.076 65.156 98.247C67.254 88.368 68.759 77.893 70.843 67.997H58.433C53.99 93.204 49.95 118.81 44.99 143.497H57.658C59.646 130.832 61.504 118.039 64.121 106.007C74.924 105.74 87.871 105.277 98.251 106.265C96.111 118.776 93.524 130.84 91.529 143.497H104.198C108.268 117.92 112.558 92.562 117.643 67.999L104.714 67.998ZM136.257 79.374C138.474 77.848 141.328 70.893 138.067 67.998C137.034 67.081 135.306 66.815 132.897 67.223C130.66 67.6 129.374 68.359 128.501 69.549C127.095 71.462 125.808 77.231 127.983 79.374C130.101 81.461 134.847 80.344 136.257 79.374Z" fill="#040404"/>
</g>
<defs>
<clipPath id="clip0_81_19">
<rect width="512" height="223" fill="white"/>
</clipPath>
</defs>
</svg>
