<svg width="55" height="57" viewBox="0 0 55 57" fill="none" xmlns="http://www.w3.org/2000/svg">
<g clip-path="url(#clip0_33_51)">
<path d="M27.5 4.83164C14.4819 4.83164 3.9254 15.4301 3.9254 28.5C3.9254 41.5699 14.4819 52.1684 27.5 52.1684C40.5181 52.1684 51.0746 41.5699 51.0746 28.5C51.0746 15.4301 40.5181 4.83164 27.5 4.83164ZM16.6996 19.6271C16.6996 13.6488 21.5454 8.78379 27.5 8.78379C33.4546 8.78379 38.3004 13.6488 38.3004 19.6271V22.5885C38.3004 23.1451 37.8679 23.5793 37.3135 23.5793H35.3508C34.7964 23.5793 34.3639 23.1451 34.3639 22.5885V19.6271C34.3639 10.4871 20.6139 10.4871 20.6139 19.6271V22.5885C20.6139 23.1451 20.1815 23.5793 19.627 23.5793H17.6643C17.1099 23.5793 16.6774 23.1451 16.6774 22.5885V19.6271H16.6996ZM43.2127 42.3047C43.2127 43.3846 42.3256 44.2752 41.25 44.2752H13.75C12.6744 44.2752 11.7873 43.3846 11.7873 42.3047V26.5295C11.7873 25.4496 12.6744 24.559 13.75 24.559H41.25C42.3256 24.559 43.2127 25.4496 43.2127 26.5295V42.3047ZM15.7127 27.0193V41.8148C15.7127 42.0932 15.502 42.3047 15.2248 42.3047H14.2379C13.9607 42.3047 13.75 42.0932 13.75 41.8148V27.0193C13.75 26.741 13.9607 26.5295 14.2379 26.5295H15.2248C15.502 26.5295 15.7127 26.741 15.7127 27.0193ZM31.4254 32.441C31.4254 33.8883 30.627 35.1574 29.4627 35.8254V39.3434C29.4627 39.9 29.0302 40.3342 28.4758 40.3342H26.5131C25.9587 40.3342 25.5262 39.9 25.5262 39.3434V35.8254C24.3619 35.1463 23.5635 33.8883 23.5635 32.441C23.5635 30.2479 25.3155 28.5 27.4889 28.5C29.6623 28.5 31.4254 30.259 31.4254 32.441ZM27.5 0.890625C12.3085 0.890625 0 13.248 0 28.5C0 43.752 12.3085 56.1094 27.5 56.1094C42.6915 56.1094 55 43.752 55 28.5C55 13.248 42.6915 0.890625 27.5 0.890625ZM27.5 54.1389C13.4173 54.1389 1.9627 42.6387 1.9627 28.5C1.9627 14.3613 13.4173 2.86113 27.5 2.86113C41.5827 2.86113 53.0373 14.3613 53.0373 28.5C53.0373 42.6387 41.5827 54.1389 27.5 54.1389Z" fill="white"/>
</g>
<defs>
<clipPath id="clip0_33_51">
<rect width="55" height="57" fill="white"/>
</clipPath>
</defs>
</svg>
