<svg width="28" height="28" viewBox="0 0 28 28" fill="none" xmlns="http://www.w3.org/2000/svg">
<path d="M14 14.5833C12.917 14.5833 11.8784 15.0135 11.1126 15.7792C10.3469 16.545 9.91666 17.5836 9.91666 18.6666C9.91666 19.7496 10.3469 20.7882 11.1126 21.5539C11.8784 22.3197 12.917 22.7499 14 22.7499C15.083 22.7499 16.1216 22.3197 16.8874 21.5539C17.6531 20.7882 18.0833 19.7496 18.0833 18.6666C18.0833 17.5836 17.6531 16.545 16.8874 15.7792C16.1216 15.0135 15.083 14.5833 14 14.5833ZM12.25 18.6666C12.25 18.2025 12.4344 17.7573 12.7626 17.4291C13.0907 17.101 13.5359 16.9166 14 16.9166C14.4641 16.9166 14.9092 17.101 15.2374 17.4291C15.5656 17.7573 15.75 18.2025 15.75 18.6666C15.75 19.1307 15.5656 19.5758 15.2374 19.904C14.9092 20.2322 14.4641 20.4166 14 20.4166C13.5359 20.4166 13.0907 20.2322 12.7626 19.904C12.4344 19.5758 12.25 19.1307 12.25 18.6666Z" fill="white"/>
<path d="M20.447 5.96863L16.7382 0.768799L3.101 11.6631L2.345 11.655V11.6666H1.75V25.6666H26.25V11.6666H25.1277L22.8947 5.13447L20.447 5.96863ZM22.6625 11.6666H10.9632L19.677 8.6963L21.4527 8.12813L22.6625 11.6666ZM18.1417 6.75497L9.14667 9.82097L16.2703 4.12997L18.1417 6.75497ZM4.08333 21.1971V16.1338C4.57587 15.96 5.02326 15.6781 5.39269 15.3089C5.76212 14.9396 6.04423 14.4924 6.21833 14H21.7817C21.9556 14.4926 22.2377 14.9401 22.6071 15.3095C22.9765 15.679 23.424 15.961 23.9167 16.135V21.1983C23.424 21.3723 22.9765 21.6543 22.6071 22.0237C22.2377 22.3932 21.9556 22.8406 21.7817 23.3333H6.22067C6.04588 22.8406 5.76329 22.3931 5.39352 22.0236C5.02375 21.654 4.57613 21.3716 4.08333 21.1971Z" fill="white"/>
</svg>
