<svg width="55" height="55" viewBox="0 0 55 55" fill="none" xmlns="http://www.w3.org/2000/svg">
<g clip-path="url(#clip0_33_53)">
<path d="M27.5 0C30.0244 0 32.4593 0.322266 34.8047 0.966797C37.1501 1.61133 39.3433 2.53337 41.3843 3.73291C43.4253 4.93245 45.2783 6.36475 46.9434 8.02979C48.6084 9.69482 50.0407 11.5568 51.2402 13.6157C52.4398 15.6746 53.3618 17.8678 54.0063 20.1953C54.6509 22.5228 54.9821 24.9577 55 27.5C55 30.0244 54.6777 32.4593 54.0332 34.8047C53.3887 37.1501 52.4666 39.3433 51.2671 41.3843C50.0675 43.4253 48.6353 45.2783 46.9702 46.9434C45.3052 48.6084 43.4432 50.0407 41.3843 51.2402C39.3254 52.4398 37.1322 53.3618 34.8047 54.0063C32.4772 54.6509 30.0423 54.9821 27.5 55C24.9756 55 22.5407 54.6777 20.1953 54.0332C17.8499 53.3887 15.6567 52.4666 13.6157 51.2671C11.5747 50.0675 9.72168 48.6353 8.05664 46.9702C6.3916 45.3052 4.95931 43.4432 3.75977 41.3843C2.56022 39.3254 1.63818 37.1411 0.993652 34.8315C0.349121 32.522 0.0179036 30.0781 0 27.5C0 24.9756 0.322266 22.5407 0.966797 20.1953C1.61133 17.8499 2.53337 15.6567 3.73291 13.6157C4.93245 11.5747 6.36475 9.72168 8.02979 8.05664C9.69482 6.3916 11.5568 4.95931 13.6157 3.75977C15.6746 2.56022 17.8589 1.63818 20.1685 0.993652C22.478 0.349121 24.9219 0.0179036 27.5 0ZM27.5 51.5625C29.7021 51.5625 31.8237 51.276 33.8647 50.7031C35.9058 50.1302 37.8215 49.3245 39.6118 48.2861C41.4022 47.2477 43.0314 45.9855 44.4995 44.4995C45.9676 43.0135 47.2209 41.3932 48.2593 39.6387C49.2977 37.8841 50.1123 35.9684 50.7031 33.8916C51.2939 31.8148 51.5804 29.6842 51.5625 27.5C51.5625 25.2979 51.276 23.1763 50.7031 21.1353C50.1302 19.0942 49.3245 17.1785 48.2861 15.3882C47.2477 13.5978 45.9855 11.9686 44.4995 10.5005C43.0135 9.03239 41.3932 7.77913 39.6387 6.74072C37.8841 5.70231 35.9684 4.8877 33.8916 4.29688C31.8148 3.70605 29.6842 3.4196 27.5 3.4375C25.2979 3.4375 23.1763 3.72396 21.1353 4.29688C19.0942 4.86979 17.1785 5.67546 15.3882 6.71387C13.5978 7.75228 11.9686 9.01449 10.5005 10.5005C9.03239 11.9865 7.77913 13.6068 6.74072 15.3613C5.70231 17.1159 4.8877 19.0316 4.29688 21.1084C3.70605 23.1852 3.4196 25.3158 3.4375 27.5C3.4375 29.7021 3.72396 31.8237 4.29688 33.8647C4.86979 35.9058 5.67546 37.8215 6.71387 39.6118C7.75228 41.4022 9.01449 43.0314 10.5005 44.4995C11.9865 45.9676 13.6068 47.2209 15.3613 48.2593C17.1159 49.2977 19.0316 50.1123 21.1084 50.7031C23.1852 51.2939 25.3158 51.5804 27.5 51.5625ZM43.5327 27.9297L44.8218 24.0625H46.8359L44.5532 30.9375H42.5391L41.25 27.0703L39.9609 30.9375H37.9468L35.6641 24.0625H37.6782L38.9673 27.9297L40.2563 24.0625H42.2437L43.5327 27.9297ZM31.0718 24.0625H33.0859L30.8032 30.9375H28.7891L27.5 27.0703L26.2109 30.9375H24.1968L21.9141 24.0625H23.9282L25.2173 27.9297L26.5063 24.0625H28.4937L29.7827 27.9297L31.0718 24.0625ZM17.3218 24.0625H19.3359L17.0532 30.9375H15.0391L13.75 27.0703L12.4609 30.9375H10.4468L8.16406 24.0625H10.1782L11.4673 27.9297L12.7563 24.0625H14.7437L16.0327 27.9297L17.3218 24.0625Z" fill="white"/>
</g>
<defs>
<clipPath id="clip0_33_53">
<rect width="55" height="55" fill="white"/>
</clipPath>
</defs>
</svg>
